<svg xmlns="http://www.w3.org/2000/svg" width="129" height="33" fill="none" viewBox="0 0 129 33"><path fill="#00e5ff" d="M30.54 11.265a16.7 16.7 0 0 0-5.061-7.45c-.492-.418-1.29-1.036-1.868-1.329-.726-.502-1.582-.89-2.392-1.232C18.11-.064 15.566.002 12.3.002L3.33.004c-.694 0-1.835-.026-2.49.051-.35.25-.661.48-.725.933C.012 1.709.04 2.515.04 3.248v8.221c0 .684-.033 1.796.011 2.451-.11 3.074-.009 6.865-.009 10.004v4.559c0 1.243-.074 2.547.166 3.766.046.542.8.724 1.24.729 4.312.028 8.628-.003 12.937.022 1.946.01 3.922-.24 5.772-.852a16.44 16.44 0 0 0 9.425-8.206 16.68 16.68 0 0 0 .954-12.68zM18.248 24.83c-4.318 1.729-9.237-.1-11.4-4.242-2.16-4.14-.865-9.258 3.002-11.852a9.1 9.1 0 0 1 3.507-1.406c4.58-.79 9.015 2.03 10.274 6.534 1.262 4.502-1.062 9.236-5.38 10.966z"/><path fill="#fff" d="M42.881 20.232h-3.459v-9.818h3.488q1.472 0 2.534.59 1.062.585 1.634 1.682.576 1.098.577 2.627 0 1.534-.577 2.637a3.97 3.97 0 0 1-1.644 1.692q-1.066.59-2.553.59m-1.396-1.778h1.31q.915-.001 1.539-.326.63-.331.943-1.022.32-.694.32-1.793 0-1.088-.32-1.778a2.07 2.07 0 0 0-.938-1.016q-.625-.327-1.539-.326h-1.315zM49.547 20.232V12.87h2.03v7.363zm1.02-8.313a1.1 1.1 0 0 1-.777-.302.98.98 0 0 1-.32-.733q0-.422.32-.724a1.1 1.1 0 0 1 .777-.307q.452 0 .771.307a.96.96 0 0 1 .324.724.98.98 0 0 1-.324.733q-.319.303-.771.302M56.902 23.147q-.987 0-1.692-.273-.7-.27-1.115-.734a2.26 2.26 0 0 1-.538-1.045l1.877-.254q.086.22.272.412t.49.307q.31.12.753.12.663 0 1.091-.326.434-.321.434-1.079v-1.347h-.086a2 2 0 0 1-.4.58q-.267.273-.686.446t-1 .173a3 3 0 0 1-1.501-.384q-.672-.388-1.072-1.184-.396-.8-.396-2.023 0-1.25.405-2.09t1.077-1.256a2.77 2.77 0 0 1 1.481-.417q.615 0 1.03.21.414.207.666.518.258.307.396.604h.076v-1.237h2.015v7.436q0 .94-.457 1.573-.457.632-1.267.949-.805.32-1.854.32m.042-4.554q.492 0 .83-.245.342-.25.523-.71.186-.465.186-1.112t-.18-1.121a1.64 1.64 0 0 0-.525-.743 1.33 1.33 0 0 0-.834-.264q-.5 0-.843.273a1.64 1.64 0 0 0-.52.748q-.175.48-.175 1.107 0 .638.176 1.103.18.46.52.714.342.25.842.25M62.497 20.232V12.87h2.03v7.363zm1.02-8.313q-.453 0-.777-.302a.98.98 0 0 1-.32-.733q0-.422.32-.724a1.1 1.1 0 0 1 .776-.307q.454 0 .772.307a.96.96 0 0 1 .324.724.98.98 0 0 1-.324.733q-.32.303-.772.302M70.447 12.869v1.534H66.04v-1.535zm-3.407-1.765h2.03v6.865q0 .283.086.441a.47.47 0 0 0 .238.216 1 1 0 0 0 .362.063q.142 0 .286-.024l.219-.044.32 1.52a6 6 0 0 1-.43.11 3.4 3.4 0 0 1-.671.082q-.734.029-1.287-.197a1.8 1.8 0 0 1-.852-.7q-.306-.474-.3-1.198zM74.258 20.371q-.7 0-1.248-.244a2 2 0 0 1-.867-.734q-.315-.489-.315-1.218 0-.613.224-1.03a1.8 1.8 0 0 1 .61-.671q.386-.255.877-.384.495-.13 1.038-.182.639-.067 1.03-.125.39-.062.566-.182a.4.4 0 0 0 .176-.355v-.028q0-.456-.285-.705-.282-.25-.8-.25-.549 0-.873.245-.324.24-.428.604l-1.877-.153q.142-.672.562-1.16.42-.495 1.081-.758.668-.268 1.544-.268.609 0 1.167.143.563.144.996.446.438.302.69.777.253.47.253 1.127v4.966h-1.925v-1.021h-.057q-.177.345-.472.609a2.2 2.2 0 0 1-.71.407 2.9 2.9 0 0 1-.957.144m.581-1.41q.448 0 .791-.177.343-.181.538-.489.195-.306.196-.695v-.781q-.096.062-.262.115-.162.048-.367.09-.205.039-.41.073l-.371.053a2.5 2.5 0 0 0-.625.167 1 1 0 0 0-.414.312.76.76 0 0 0-.148.48q0 .416.3.637.305.216.772.216M82.385 10.414v9.818h-2.03v-9.818zM96.925 15.323q0 1.606-.605 2.733-.6 1.126-1.639 1.72-1.034.59-2.325.59-1.3 0-2.334-.594t-1.634-1.721-.6-2.728q0-1.606.6-2.732.6-1.128 1.634-1.717 1.034-.594 2.334-.594 1.291 0 2.325.594 1.039.59 1.64 1.717.603 1.125.604 2.732m-2.091 0q0-1.04-.31-1.755-.304-.714-.862-1.083-.558-.37-1.306-.37-.747 0-1.305.37-.557.369-.867 1.084-.305.713-.305 1.754t.305 1.755q.309.714.867 1.083.558.37 1.305.37.748 0 1.306-.37.557-.369.862-1.083.31-.714.31-1.755M102.753 12.869v1.534h-4.517v-1.535zm-3.483 7.363v-7.896q0-.8.31-1.328.315-.527.857-.79a2.8 2.8 0 0 1 1.234-.264q.467 0 .853.072.39.071.581.13l-.362 1.533a3 3 0 0 0-.295-.072 2 2 0 0 0-.353-.033q-.447 0-.624.21-.176.208-.176.58v7.858zM108.33 12.869v1.534h-4.516v-1.535zm-3.482 7.363v-7.896q0-.8.309-1.328.315-.527.858-.79a2.8 2.8 0 0 1 1.234-.264q.466 0 .852.072.392.071.582.13l-.362 1.533a3 3 0 0 0-.296-.072 2 2 0 0 0-.352-.033q-.449 0-.624.21-.177.208-.177.58v7.858zM109.972 20.232V12.87h2.03v7.363zm1.02-8.313a1.1 1.1 0 0 1-.777-.302.99.99 0 0 1-.319-.733q0-.422.319-.724a1.1 1.1 0 0 1 .777-.307q.453 0 .772.307a.96.96 0 0 1 .324.724.98.98 0 0 1-.324.733q-.32.303-.772.302M117.336 20.376q-1.124 0-1.934-.48a3.23 3.23 0 0 1-1.238-1.342q-.429-.858-.429-1.975 0-1.131.433-1.985a3.24 3.24 0 0 1 1.244-1.337q.805-.484 1.915-.484.957 0 1.677.35.719.35 1.138.982.42.634.463 1.486h-1.916q-.08-.551-.428-.886-.343-.34-.901-.34-.471 0-.824.258-.348.254-.543.743-.195.488-.195 1.184 0 .705.19 1.199.195.493.548.753.353.258.824.258.348 0 .624-.143.282-.144.462-.418a1.6 1.6 0 0 0 .243-.666h1.916a3.04 3.04 0 0 1-.458 1.486 2.77 2.77 0 0 1-1.119.997q-.715.36-1.692.36M125.641 20.376q-1.128 0-1.943-.46a3.15 3.15 0 0 1-1.249-1.314q-.438-.854-.438-2.018 0-1.137.438-1.994a3.26 3.26 0 0 1 1.234-1.338q.801-.48 1.877-.48.725 0 1.349.236.629.23 1.095.695.472.465.734 1.17.262.7.262 1.639v.56h-6.179v-1.265h4.269q0-.44-.191-.781a1.37 1.37 0 0 0-.529-.532 1.5 1.5 0 0 0-.776-.197q-.463 0-.82.216-.352.21-.552.57a1.6 1.6 0 0 0-.205.791v1.204q0 .546.2.944.205.398.576.614.372.216.882.216.338 0 .619-.096t.481-.288.305-.47l1.877.125q-.142.68-.586 1.189-.438.503-1.134.786-.69.278-1.596.278"/></svg>