<?xml version="1.0" encoding="UTF-8"?>
<svg id="Layer_1" data-name="Layer 1" xmlns="http://www.w3.org/2000/svg" viewBox="0 0 60.97 63.76">
  <defs>
    <style>
      .cls-1 {
        fill: #00e5ff;
      }
    </style>
  </defs>
  <path class="cls-1" d="M59.37,21.76c-1.89-5.61-5.3-10.59-9.84-14.39-.94-.79-2.44-1.95-3.55-2.53-.05-.03-.1-.05-.14-.09-1.4-.95-3.03-1.69-4.58-2.33C35.2-.12,30.26,0,23.91,0h-9.68s-7.76,0-7.76,0C5.29,0,3.46-.03,2.16.06c-.36.02-.7.16-.98.38-.48.38-.86.79-.95,1.47C.03,3.3.08,4.86.08,6.28v6.73S.08,22.16.08,22.16c0,1.3-.06,3.38.02,4.66,0,.05,0,.1,0,.15-.21,5.93-.01,13.21-.01,19.25v8.81c0,2.08-.11,4.26.17,6.34.14,1.06.89,1.98,1.92,2.25.22.06.43.09.65.09,8.38.06,16.77,0,25.15.04,3.78.02,7.63-.46,11.22-1.64,7.96-2.67,14.54-8.36,18.32-15.86,3.85-7.59,4.51-16.41,1.85-24.5ZM35.47,47.97c-8.4,3.34-17.96-.19-22.16-8.19-4.2-8-1.68-17.89,5.84-22.9,2.06-1.37,4.38-2.3,6.82-2.72,8.91-1.53,17.53,3.92,19.97,12.62,2.45,8.7-2.07,17.84-10.46,21.19Z"/>
</svg>